<svg width="64" height="64" viewBox="0 0 64 64" xmlns="http://www.w3.org/2000/svg"><mask id="satori_om-id"><rect x="0" y="0" width="64" height="64" fill="#fff"/></mask><path x="0" y="0" width="64" height="64" fill="#16161a" d="M14,0 h36 a14,14 0 0 1 14,14 v36 a14,14 0 0 1 -14,14 h-36 a14,14 0 0 1 -14,-14 v-36 a14,14 0 0 1 14,-14"/><g><path fill="#f0845c" d="M32.3 38.8L26.0 38.8L25.8 28.0L30.8 28.0Q32.8 28.0 34.0 27.0Q35.2 26.0 35.2 24.3L35.2 24.3Q35.2 22.5 34.0 21.5Q32.8 20.5 30.7 20.5L30.7 20.5L22.5 20.5L22.5 13.6L30.2 13.6Q34.1 13.6 36.9 14.9Q39.7 16.2 41.2 18.6Q42.7 21.0 42.7 24.3L42.7 24.3Q42.7 27.4 41.4 29.8Q40.1 32.1 37.8 33.5Q35.4 34.8 32.3 34.8L32.3 34.8L32.3 38.8ZM29.9 50.2L28.4 50.2Q26.7 50.2 25.7 49.3Q24.7 48.3 24.7 46.8L24.7 46.8Q24.7 45.2 25.7 44.2Q26.7 43.3 28.4 43.3L28.4 43.3L29.9 43.3Q31.6 43.3 32.6 44.2Q33.7 45.2 33.7 46.8L33.7 46.8Q33.7 48.4 32.6 49.3Q31.6 50.2 29.9 50.2L29.9 50.2Z "/></g></svg>